<svg width="133" height="30" viewBox="0 0 133 30" fill="none" xmlns="http://www.w3.org/2000/svg">
<g clip-path="url(#clip0)">
<path d="M29 13C29 18.3751 24.2289 23 18 23C11.7711 23 7 18.3751 7 13C7 7.62487 11.7711 3 18 3C24.2289 3 29 7.62487 29 13Z" stroke="#360AF2" stroke-width="4"/>
<path d="M5.5 10L9 10V28H5L5.5 10Z" fill="#360AF2"/>
<path d="M4.50021 5.5C5.30021 5.9 6.50021 8.33333 7.00021 9.5L14.5002 2C13.3335 2 11.0002 1.5 10.5002 1.5C9.79308 1.5 4.00021 1 2.50021 1C1.00021 1 1.00021 4 1.50021 4.5C2.00021 5 3.50021 5 4.50021 5.5Z" fill="#360AF2"/>
<path d="M48.872 14.432C48.872 15.328 48.656 16.168 48.224 16.952C47.808 17.736 47.144 18.368 46.232 18.848C45.336 19.328 44.2 19.568 42.824 19.568H40.016V26H36.656V9.248H42.824C44.12 9.248 45.224 9.472 46.136 9.92C47.048 10.368 47.728 10.984 48.176 11.768C48.64 12.552 48.872 13.44 48.872 14.432ZM42.68 16.856C43.608 16.856 44.296 16.648 44.744 16.232C45.192 15.8 45.416 15.2 45.416 14.432C45.416 12.8 44.504 11.984 42.68 11.984H40.016V16.856H42.68ZM53.6816 11.12C53.0896 11.12 52.5936 10.936 52.1936 10.568C51.8096 10.184 51.6176 9.712 51.6176 9.152C51.6176 8.592 51.8096 8.128 52.1936 7.76C52.5936 7.376 53.0896 7.184 53.6816 7.184C54.2736 7.184 54.7616 7.376 55.1456 7.76C55.5456 8.128 55.7456 8.592 55.7456 9.152C55.7456 9.712 55.5456 10.184 55.1456 10.568C54.7616 10.936 54.2736 11.12 53.6816 11.12ZM55.3376 12.704V26H51.9776V12.704H55.3376ZM62.7373 14.624C63.1693 14.016 63.7613 13.512 64.5133 13.112C65.2813 12.696 66.1533 12.488 67.1293 12.488C68.2653 12.488 69.2893 12.768 70.2013 13.328C71.1293 13.888 71.8573 14.688 72.3853 15.728C72.9293 16.752 73.2013 17.944 73.2013 19.304C73.2013 20.664 72.9293 21.872 72.3853 22.928C71.8573 23.968 71.1293 24.776 70.2013 25.352C69.2893 25.928 68.2653 26.216 67.1293 26.216C66.1533 26.216 65.2893 26.016 64.5373 25.616C63.8013 25.216 63.2013 24.712 62.7373 24.104V32.336H59.3773V12.704H62.7373V14.624ZM69.7693 19.304C69.7693 18.504 69.6013 17.816 69.2653 17.24C68.9453 16.648 68.5133 16.2 67.9693 15.896C67.4413 15.592 66.8653 15.44 66.2413 15.44C65.6333 15.44 65.0573 15.6 64.5133 15.92C63.9853 16.224 63.5533 16.672 63.2173 17.264C62.8973 17.856 62.7373 18.552 62.7373 19.352C62.7373 20.152 62.8973 20.848 63.2173 21.44C63.5533 22.032 63.9853 22.488 64.5133 22.808C65.0573 23.112 65.6333 23.264 66.2413 23.264C66.8653 23.264 67.4413 23.104 67.9693 22.784C68.5133 22.464 68.9453 22.008 69.2653 21.416C69.6013 20.824 69.7693 20.12 69.7693 19.304ZM88.7229 19.064C88.7229 19.544 88.6909 19.976 88.6269 20.36H78.9069C78.9869 21.32 79.3229 22.072 79.9149 22.616C80.5069 23.16 81.2349 23.432 82.0989 23.432C83.3469 23.432 84.2349 22.896 84.7629 21.824H88.3869C88.0029 23.104 87.2669 24.16 86.1789 24.992C85.0909 25.808 83.7549 26.216 82.1709 26.216C80.8909 26.216 79.7389 25.936 78.7149 25.376C77.7069 24.8 76.9149 23.992 76.3389 22.952C75.7789 21.912 75.4989 20.712 75.4989 19.352C75.4989 17.976 75.7789 16.768 76.3389 15.728C76.8989 14.688 77.6829 13.888 78.6909 13.328C79.6989 12.768 80.8589 12.488 82.1709 12.488C83.4349 12.488 84.5629 12.76 85.5549 13.304C86.5629 13.848 87.3389 14.624 87.8829 15.632C88.4429 16.624 88.7229 17.768 88.7229 19.064ZM85.2429 18.104C85.2269 17.24 84.9149 16.552 84.3069 16.04C83.6989 15.512 82.9549 15.248 82.0749 15.248C81.2429 15.248 80.5389 15.504 79.9629 16.016C79.4029 16.512 79.0589 17.208 78.9309 18.104H85.2429ZM95.2554 8.24V26H91.8954V8.24H95.2554ZM49.016 55.064C49.016 55.544 48.984 55.976 48.92 56.36H39.2C39.28 57.32 39.616 58.072 40.208 58.616C40.8 59.16 41.528 59.432 42.392 59.432C43.64 59.432 44.528 58.896 45.056 57.824H48.68C48.296 59.104 47.56 60.16 46.472 60.992C45.384 61.808 44.048 62.216 42.464 62.216C41.184 62.216 40.032 61.936 39.008 61.376C38 60.8 37.208 59.992 36.632 58.952C36.072 57.912 35.792 56.712 35.792 55.352C35.792 53.976 36.072 52.768 36.632 51.728C37.192 50.688 37.976 49.888 38.984 49.328C39.992 48.768 41.152 48.488 42.464 48.488C43.728 48.488 44.856 48.76 45.848 49.304C46.856 49.848 47.632 50.624 48.176 51.632C48.736 52.624 49.016 53.768 49.016 55.064ZM45.536 54.104C45.52 53.24 45.208 52.552 44.6 52.04C43.992 51.512 43.248 51.248 42.368 51.248C41.536 51.248 40.832 51.504 40.256 52.016C39.696 52.512 39.352 53.208 39.224 54.104H45.536ZM51.3245 55.304C51.3245 53.96 51.5885 52.768 52.1165 51.728C52.6605 50.688 53.3885 49.888 54.3005 49.328C55.2285 48.768 56.2605 48.488 57.3965 48.488C58.3885 48.488 59.2525 48.688 59.9885 49.088C60.7405 49.488 61.3405 49.992 61.7885 50.6V48.704H65.1725V62H61.7885V60.056C61.3565 60.68 60.7565 61.2 59.9885 61.616C59.2365 62.016 58.3645 62.216 57.3725 62.216C56.2525 62.216 55.2285 61.928 54.3005 61.352C53.3885 60.776 52.6605 59.968 52.1165 58.928C51.5885 57.872 51.3245 56.664 51.3245 55.304ZM61.7885 55.352C61.7885 54.536 61.6285 53.84 61.3085 53.264C60.9885 52.672 60.5565 52.224 60.0125 51.92C59.4685 51.6 58.8845 51.44 58.2605 51.44C57.6365 51.44 57.0605 51.592 56.5325 51.896C56.0045 52.2 55.5725 52.648 55.2365 53.24C54.9165 53.816 54.7565 54.504 54.7565 55.304C54.7565 56.104 54.9165 56.808 55.2365 57.416C55.5725 58.008 56.0045 58.464 56.5325 58.784C57.0765 59.104 57.6525 59.264 58.2605 59.264C58.8845 59.264 59.4685 59.112 60.0125 58.808C60.5565 58.488 60.9885 58.04 61.3085 57.464C61.6285 56.872 61.7885 56.168 61.7885 55.352ZM72.5341 50.768C72.9661 50.064 73.5261 49.512 74.2141 49.112C74.9181 48.712 75.7181 48.512 76.6141 48.512V52.04H75.7261C74.6701 52.04 73.8701 52.288 73.3261 52.784C72.7981 53.28 72.5341 54.144 72.5341 55.376V62H69.1741V48.704H72.5341V50.768ZM86.9653 48.512C88.5493 48.512 89.8293 49.016 90.8053 50.024C91.7812 51.016 92.2692 52.408 92.2692 54.2V62H88.9093V54.656C88.9093 53.6 88.6453 52.792 88.1173 52.232C87.5893 51.656 86.8693 51.368 85.9573 51.368C85.0293 51.368 84.2933 51.656 83.7493 52.232C83.2213 52.792 82.9572 53.6 82.9572 54.656V62H79.5972V48.704H82.9572V50.36C83.4053 49.784 83.9733 49.336 84.6612 49.016C85.3652 48.68 86.1332 48.512 86.9653 48.512Z" fill="#360AF2"/>
</g>
<defs>
<clipPath id="clip0">
<rect width="133" height="30" fill="white"/>
</clipPath>
</defs>
</svg>
