<svg width="220" height="220" viewBox="0 0 220 220" fill="none" xmlns="http://www.w3.org/2000/svg">
<g filter="url(#filter0_d)">
<circle cx="110" cy="95" r="50" fill="url(#paint0_linear)"/>
<path d="M133.98 92.2222C133.98 102.176 125.144 110.741 113.609 110.741C102.074 110.741 93.2389 102.176 93.2389 92.2222C93.2389 82.2683 102.074 73.7037 113.609 73.7037C125.144 73.7037 133.98 82.2683 133.98 92.2222Z" stroke="white" stroke-width="7.40741"/>
<path d="M90.4611 86.6667L96.9426 86.6667V120H89.5352L90.4611 86.6667Z" fill="white"/>
<path d="M88.6093 78.3333C90.0908 79.0741 92.313 83.5802 93.239 85.7407L107.128 71.8519C104.967 71.8519 100.646 70.9259 99.7204 70.9259C98.4109 70.9259 87.6834 70 84.9056 70C82.1278 70 82.1278 75.5556 83.0538 76.4815C83.9797 77.4074 86.7575 77.4074 88.6093 78.3333Z" fill="white"/>
</g>
<defs>
<filter id="filter0_d" x="0" y="0" width="220" height="220" filterUnits="userSpaceOnUse" color-interpolation-filters="sRGB">
<feFlood flood-opacity="0" result="BackgroundImageFix"/>
<feColorMatrix in="SourceAlpha" type="matrix" values="0 0 0 0 0 0 0 0 0 0 0 0 0 0 0 0 0 0 127 0"/>
<feOffset dy="15"/>
<feGaussianBlur stdDeviation="30"/>
<feColorMatrix type="matrix" values="0 0 0 0 0.521569 0 0 0 0 0.415686 0 0 0 0 0.972549 0 0 0 0.54 0"/>
<feBlend mode="normal" in2="BackgroundImageFix" result="effect1_dropShadow"/>
<feBlend mode="normal" in="SourceGraphic" in2="effect1_dropShadow" result="shape"/>
</filter>
<linearGradient id="paint0_linear" x1="110" y1="45" x2="142.5" y2="196.25" gradientUnits="userSpaceOnUse">
<stop stop-color="#512BF5"/>
<stop offset="1" stop-color="#BAACFA"/>
</linearGradient>
</defs>
</svg>
