<svg width="40" height="40" viewBox="0 0 40 40" fill="none" xmlns="http://www.w3.org/2000/svg">
<circle cx="20" cy="20" r="20" fill="url(#paint0_linear)"/>
<path d="M29.5919 18.8889C29.5919 22.8705 26.0577 26.2963 21.4437 26.2963C16.8297 26.2963 13.2956 22.8705 13.2956 18.8889C13.2956 14.9073 16.8297 11.4815 21.4437 11.4815C26.0577 11.4815 29.5919 14.9073 29.5919 18.8889Z" stroke="white" stroke-width="2.96296"/>
<path d="M12.1845 16.6667L14.777 16.6667V30H11.8141L12.1845 16.6667Z" fill="white"/>
<path d="M11.4437 13.3333C12.0363 13.6296 12.9252 15.4321 13.2956 16.2963L18.8511 10.7407C17.9869 10.7407 16.2585 10.3704 15.8882 10.3704C15.3644 10.3704 11.0734 10 9.96225 10C8.85114 10 8.85114 12.2222 9.22151 12.5926C9.59188 12.963 10.703 12.963 11.4437 13.3333Z" fill="white"/>
<defs>
<linearGradient id="paint0_linear" x1="20" y1="-4.5076e-07" x2="33" y2="60.5" gradientUnits="userSpaceOnUse">
<stop stop-color="#512BF5"/>
<stop offset="1" stop-color="#BAACFA"/>
</linearGradient>
</defs>
</svg>
