<svg width="1170" height="256" viewBox="0 0 1170 256" fill="none" xmlns="http://www.w3.org/2000/svg">
<g clip-path="url(#clip0)">
<path d="M1141 0H29C12.9837 0 0 12.9837 0 29V227C0 243.016 12.9837 256 29 256H1141C1157.02 256 1170 243.016 1170 227V29C1170 12.9837 1157.02 0 1141 0Z" fill="#360AF2"/>
<path d="M0 106.439L9.75 120.716C19.5 134.993 39 163.547 58.5 144.541C78 125.178 97.5 59.1469 117 44.6019C136.5 30.5929 156 68.0699 175.5 82.6149C195 96.6239 214.5 87.7009 234 82.6149C253.5 77.8859 273 77.8859 292.5 68.3379C312 59.1469 331.5 39.5159 351 63.6089C370.5 87.7019 390 153.732 409.5 187.372C429 220.655 448.5 220.655 468 192.101C487.5 163.547 507 106.439 526.5 77.8849C546 49.3309 565.5 49.3309 585 39.7849C604.5 30.5939 624 10.9629 643.5 35.0559C663 59.1489 682.5 125.18 702 158.82C721.5 192.103 741 192.103 760.5 163.549C780 134.995 799.5 77.8869 819 58.8809C838.5 39.5179 858 59.1489 877.5 87.4349C897 116.257 916.5 153.735 936 182.556C955.5 210.842 975 230.473 994.5 196.833C1014 163.55 1033.5 77.8879 1053 68.3399C1072.5 59.1489 1092 125.18 1111.5 125.448C1131 125.18 1150.5 59.1479 1160.25 25.5089L1170 -7.77706V-36.3311H0V106.439Z" fill="url(#paint0_linear)"/>
</g>
<defs>
<linearGradient id="paint0_linear" x1="592.02" y1="229.861" x2="591.697" y2="-36.3392" gradientUnits="userSpaceOnUse">
<stop stop-color="#6744FB"/>
<stop offset="1" stop-color="#360AF2"/>
</linearGradient>
<clipPath id="clip0">
<rect width="1170" height="256" fill="white"/>
</clipPath>
</defs>
</svg>
