<svg width="1692" height="517" viewBox="0 0 1692 517" fill="none" xmlns="http://www.w3.org/2000/svg">
<g clip-path="url(#clip0)">
<path d="M-21.4102 552C40.7998 472.989 136.43 319.69 230.2 246.51C577.761 -24.1678 734.252 278.456 1296.48 42.1172C1652.93 -107.721 1702.04 281.304 1690.27 550.852L-21.4102 552Z" fill="#360AF2"/>
<path opacity="0.05" d="M243.485 724.434C202.085 538.723 339.944 476.457 471.512 380.167C727.06 193.543 841.768 370.311 1255.15 207.367C1668.54 44.423 1519.72 724.438 1519.72 724.438L243.485 724.434Z" fill="white"/>
<path d="M1656.32 724.433C1697.72 538.723 1559.86 476.456 1428.29 380.167C1172.74 193.544 1058.03 370.311 644.646 207.363C231.26 44.4152 380.076 724.433 380.076 724.433H1656.32Z" fill="url(#paint0_linear)"/>
</g>
<defs>
<linearGradient id="paint0_linear" x1="883.16" y1="-3.86047" x2="884.732" y2="626.298" gradientUnits="userSpaceOnUse">
<stop stop-color="#7154ED"/>
<stop offset="1" stop-color="#360AF2"/>
</linearGradient>
<clipPath id="clip0">
<rect width="1692" height="517" fill="white"/>
</clipPath>
</defs>
</svg>
